<svg width="303" height="166" viewBox="0 0 303 166" fill="none" xmlns="http://www.w3.org/2000/svg">
<path d="M197.33 50.1828C187.156 52.0211 179.264 58.7407 175.999 68.3129C175.619 69.4857 175.175 71.1022 175.08 71.8629C174.858 73.1941 174.604 73.4794 170.737 76.8392C159.771 86.3797 149.533 99.1849 143.098 111.42C140.88 115.604 140.531 116.935 141.038 119.058C141.545 121.214 143.732 123.432 145.824 123.971C146.934 124.257 165 124.352 218.377 124.352H289.439L289.217 125.968C288.584 130.754 285.604 134.621 280.85 136.808C279.36 137.506 279.36 137.506 248.615 137.664C218.028 137.854 217.87 137.854 215.334 138.551C204.747 141.499 197.077 149.772 195.239 160.295C195.048 161.341 194.89 162.799 194.89 163.56L194.864 165.116H201.635C209.178 165.116 208.234 165.24 208.678 162.102C209.09 159.059 211.53 155.446 214.478 153.544C217.965 151.325 215.492 151.483 249.566 151.293C283.988 151.103 281.642 151.262 287.062 148.726C295.715 144.732 301.516 136.745 302.625 127.363C303.132 123.052 303.069 107.521 302.498 102.735C299.265 75.1276 283.797 56.9023 259.074 51.6091C252.83 50.2779 249.978 50.0243 241.325 50.056C235.461 50.056 231.911 50.2145 228.995 50.6265C224.906 51.1654 217.838 52.4332 215.841 53.0354C214.953 53.289 214.541 53.1939 213.242 52.56C210.326 51.0703 206.427 50.1511 202.497 50.0243C200.5 49.9609 198.155 50.0243 197.33 50.1828ZM205.35 63.8755C210.516 65.4286 214.193 69.771 214.985 75.2861L215.207 76.8075H188.139L188.329 74.874C189.026 67.1719 197.679 61.5934 205.35 63.8755ZM183.384 91.2292C186.269 92.5605 187.79 95.9202 186.966 99.0265C186.395 101.087 184.145 103.21 181.99 103.717C177.552 104.795 173.083 100.77 173.78 96.364C174.541 91.6413 179.074 89.2007 183.384 91.2292Z" fill="url(#paint0_linear_2_228)"/>
<path d="M2.96875 127.47H24.6796C27.4832 127.47 29.9321 127.766 32.0263 128.357C34.1375 128.948 35.8939 129.775 37.2957 130.839C38.7144 131.903 39.7784 133.179 40.4878 134.665C41.1971 136.151 41.5518 137.789 41.5518 139.579C41.5518 141.792 41.0282 143.76 39.9811 145.482C38.934 147.188 37.3802 148.548 35.3197 149.561L43.2238 165.141H26.681L20.7022 151.461H17.6115V165.116H2.96875V127.47ZM18.4982 146.876C19.6973 146.876 20.7698 146.707 21.7156 146.369C22.6614 146.031 23.4636 145.558 24.1223 144.95C24.7809 144.325 25.2876 143.591 25.6423 142.746C25.997 141.885 26.1743 140.947 26.1743 139.934C26.1743 138.921 25.997 137.992 25.6423 137.147C25.2876 136.286 24.7809 135.551 24.1223 134.943C23.4636 134.319 22.6614 133.837 21.7156 133.499C20.7698 133.162 19.6973 132.993 18.4982 132.993H17.6369L17.6115 146.876H18.4982Z" fill="white"/>
<path d="M60.6533 136.97L56.2959 127.47H71.724L90.1669 165.141H73.624L70.8374 159.112H55.9919L53.2305 165.141H46.8211L60.6533 136.97ZM68.1773 153.31L63.4146 142.974L58.6772 153.31H68.1773Z" fill="white"/>
<path d="M101.947 133.246H91.2055V127.445H127.331V133.246H116.59V165.116H101.947V133.246Z" fill="white"/>
<path d="M132.829 127.47H147.497L147.471 165.116H132.829V127.47Z" fill="white"/>
<path d="M157.149 127.47H166.32L190.209 147.534L190.234 127.47H195.808V165.116H186.637L162.722 145.128V165.116H157.149V127.47Z" fill="white"/>
<path d="M203.231 146.318C203.231 144.528 203.459 142.805 203.915 141.15C204.387 139.478 205.071 137.924 205.967 136.489C206.862 135.053 207.959 133.744 209.26 132.562C210.56 131.38 212.038 130.367 213.693 129.522C215.365 128.678 217.206 128.027 219.216 127.571C221.226 127.098 223.388 126.862 225.701 126.862C227.188 126.862 228.606 126.955 229.957 127.141C231.325 127.326 232.609 127.588 233.808 127.926C235.007 128.247 236.113 128.627 237.127 129.066C238.157 129.488 239.086 129.936 239.914 130.409L237.735 134.665C236.789 134.209 235.708 133.829 234.492 133.525C233.293 133.204 232.043 133.043 230.743 133.043C229.003 133.043 227.39 133.356 225.904 133.981C224.418 134.606 223.134 135.492 222.053 136.641C220.972 137.789 220.12 139.183 219.495 140.821C218.887 142.442 218.583 144.266 218.583 146.293C218.583 148.303 218.887 150.127 219.495 151.765C220.103 153.386 220.939 154.78 222.003 155.945C223.084 157.093 224.359 157.989 225.828 158.63C227.314 159.255 228.919 159.568 230.641 159.568V146.825H245.411L242.776 151.613V161.848L242.802 161.898C241.974 162.388 240.952 162.861 239.736 163.317C238.52 163.773 237.161 164.187 235.657 164.558C234.171 164.913 232.584 165.2 230.895 165.42C229.206 165.639 227.475 165.749 225.701 165.749C222.239 165.749 219.115 165.242 216.328 164.229C213.558 163.199 211.202 161.805 209.26 160.049C207.318 158.276 205.823 156.215 204.776 153.868C203.746 151.503 203.231 148.987 203.231 146.318Z" fill="white"/>
<path d="M251.592 156.756C253.383 157.668 255.257 158.352 257.216 158.808C259.175 159.264 260.999 159.492 262.688 159.492C264.631 159.492 266.049 159.213 266.944 158.656C267.856 158.098 268.312 157.338 268.312 156.376C268.312 156.072 268.253 155.759 268.135 155.438C268.034 155.117 267.823 154.805 267.502 154.501C267.198 154.18 266.767 153.868 266.21 153.564C265.669 153.243 264.96 152.93 264.082 152.626L259.547 151.081C256.304 149.966 253.864 148.463 252.226 146.572C250.587 144.663 249.768 142.4 249.768 139.782C249.768 138.093 250.123 136.472 250.832 134.918C251.542 133.347 252.614 131.971 254.05 130.789C255.485 129.59 257.292 128.635 259.471 127.926C261.667 127.217 264.234 126.862 267.172 126.862C268.625 126.862 270.018 126.946 271.352 127.115C272.687 127.284 273.936 127.504 275.102 127.774C276.284 128.044 277.365 128.357 278.345 128.711C279.324 129.049 280.185 129.387 280.929 129.725L278.193 134.665C277.652 134.327 277.078 134.031 276.47 133.778C275.879 133.525 275.279 133.314 274.671 133.145C274.08 132.976 273.497 132.849 272.923 132.765C272.349 132.68 271.825 132.638 271.352 132.638C270.542 132.638 269.832 132.748 269.224 132.967C268.616 133.17 268.101 133.449 267.679 133.803C267.274 134.141 266.961 134.53 266.742 134.969C266.539 135.391 266.438 135.813 266.438 136.235C266.438 136.607 266.522 136.97 266.691 137.325C266.877 137.663 267.181 138 267.603 138.338C268.042 138.659 268.608 138.988 269.3 139.326C270.01 139.647 270.888 139.985 271.935 140.339L274.975 141.353C278.269 142.451 280.785 143.962 282.525 145.888C284.264 147.813 285.134 150.144 285.134 152.88C285.134 154.737 284.712 156.452 283.867 158.022C283.04 159.593 281.798 160.953 280.143 162.101C278.488 163.233 276.428 164.119 273.962 164.761C271.513 165.386 268.667 165.698 265.424 165.698C263.871 165.698 262.367 165.614 260.915 165.445C259.479 165.293 258.069 165.057 256.684 164.736C255.316 164.415 253.965 164.009 252.631 163.52C251.297 163.03 249.962 162.456 248.628 161.797L251.592 156.756Z" fill="white"/>
<path d="M3.46875 7.57812H8.42188V27.6562H22.625V32H3.46875V7.57812ZM26 19.7188C26 17.875 26.3385 16.1875 27.0156 14.6562C27.6927 13.125 28.6406 11.8125 29.8594 10.7188C31.0885 9.61458 32.5573 8.76042 34.2656 8.15625C35.9844 7.55208 37.8854 7.25 39.9688 7.25C42.0417 7.25 43.9375 7.55208 45.6562 8.15625C47.375 8.76042 48.8438 9.61458 50.0625 10.7188C51.2917 11.8125 52.2448 13.125 52.9219 14.6562C53.599 16.1875 53.9375 17.875 53.9375 19.7188C53.9375 21.5729 53.599 23.276 52.9219 24.8281C52.2448 26.3698 51.2917 27.6979 50.0625 28.8125C48.8438 29.9271 47.375 30.7969 45.6562 31.4219C43.9375 32.0365 42.0417 32.3438 39.9688 32.3438C37.8854 32.3438 35.9844 32.0365 34.2656 31.4219C32.5573 30.7969 31.0885 29.9271 29.8594 28.8125C28.6406 27.6979 27.6927 26.3698 27.0156 24.8281C26.3385 23.276 26 21.5729 26 19.7188ZM30.9531 19.7188C30.9531 20.9792 31.1771 22.1146 31.625 23.125C32.0833 24.1354 32.7135 25 33.5156 25.7188C34.3281 26.4271 35.2812 26.974 36.375 27.3594C37.4792 27.7448 38.6771 27.9375 39.9688 27.9375C41.2604 27.9375 42.4531 27.7448 43.5469 27.3594C44.651 26.974 45.6042 26.4271 46.4062 25.7188C47.2083 25 47.8385 24.1354 48.2969 23.125C48.7552 22.1146 48.9844 20.9792 48.9844 19.7188C48.9844 18.4583 48.7552 17.3281 48.2969 16.3281C47.8385 15.3281 47.2083 14.4844 46.4062 13.7969C45.6042 13.099 44.651 12.5677 43.5469 12.2031C42.4531 11.8385 41.2604 11.6562 39.9688 11.6562C38.6771 11.6562 37.4792 11.8385 36.375 12.2031C35.2812 12.5677 34.3281 13.099 33.5156 13.7969C32.7135 14.4844 32.0833 15.3281 31.625 16.3281C31.1771 17.3281 30.9531 18.4583 30.9531 19.7188ZM57.7656 19.5625C57.7656 17.8438 58.0885 16.2396 58.7344 14.75C59.3802 13.25 60.3229 11.9479 61.5625 10.8438C62.8021 9.73958 64.3229 8.86979 66.125 8.23438C67.9375 7.59896 70.0104 7.28125 72.3438 7.28125C73.1875 7.28125 74.0312 7.32812 74.875 7.42188C75.7292 7.50521 76.5677 7.64062 77.3906 7.82812C78.224 8.01562 79.0312 8.25521 79.8125 8.54688C80.6042 8.82812 81.3542 9.16667 82.0625 9.5625L79.7812 13.3125C79.3542 13.0625 78.8698 12.8385 78.3281 12.6406C77.7865 12.4323 77.2031 12.2604 76.5781 12.125C75.9635 11.9792 75.3229 11.8698 74.6562 11.7969C74 11.724 73.3385 11.6875 72.6719 11.6875C71.1302 11.6875 69.7552 11.8854 68.5469 12.2812C67.3385 12.6667 66.3177 13.2135 65.4844 13.9219C64.651 14.6198 64.0156 15.4583 63.5781 16.4375C63.1406 17.4167 62.9219 18.4896 62.9219 19.6562C62.9219 20.8646 63.151 21.974 63.6094 22.9844C64.0677 23.9948 64.7188 24.8646 65.5625 25.5938C66.4062 26.3229 67.4271 26.8958 68.625 27.3125C69.8229 27.7188 71.1615 27.9219 72.6406 27.9219C73.8177 27.9219 74.8958 27.7917 75.875 27.5312C76.8542 27.2604 77.7083 26.8802 78.4375 26.3906C79.1667 25.901 79.7604 25.3125 80.2188 24.625C80.6771 23.9271 80.9792 23.1458 81.125 22.2812H72.5938V18.2031H85.5781V18.2188L85.5938 18.2031C85.8542 19.4531 85.9323 20.6719 85.8281 21.8594C85.7344 23.0365 85.4635 24.151 85.0156 25.2031C84.5781 26.2448 83.974 27.2031 83.2031 28.0781C82.4323 28.9531 81.5104 29.7083 80.4375 30.3438C79.3646 30.9688 78.1458 31.4583 76.7812 31.8125C75.4167 32.1562 73.9219 32.3281 72.2969 32.3281C70.026 32.3281 67.9896 31.9948 66.1875 31.3281C64.3958 30.6615 62.875 29.75 61.625 28.5938C60.375 27.4375 59.4167 26.0833 58.75 24.5312C58.0938 22.9792 57.7656 21.3229 57.7656 19.5625ZM90 19.7188C90 17.875 90.3385 16.1875 91.0156 14.6562C91.6927 13.125 92.6406 11.8125 93.8594 10.7188C95.0885 9.61458 96.5573 8.76042 98.2656 8.15625C99.9844 7.55208 101.885 7.25 103.969 7.25C106.042 7.25 107.938 7.55208 109.656 8.15625C111.375 8.76042 112.844 9.61458 114.062 10.7188C115.292 11.8125 116.245 13.125 116.922 14.6562C117.599 16.1875 117.938 17.875 117.938 19.7188C117.938 21.5729 117.599 23.276 116.922 24.8281C116.245 26.3698 115.292 27.6979 114.062 28.8125C112.844 29.9271 111.375 30.7969 109.656 31.4219C107.938 32.0365 106.042 32.3438 103.969 32.3438C101.885 32.3438 99.9844 32.0365 98.2656 31.4219C96.5573 30.7969 95.0885 29.9271 93.8594 28.8125C92.6406 27.6979 91.6927 26.3698 91.0156 24.8281C90.3385 23.276 90 21.5729 90 19.7188ZM94.9531 19.7188C94.9531 20.9792 95.1771 22.1146 95.625 23.125C96.0833 24.1354 96.7135 25 97.5156 25.7188C98.3281 26.4271 99.2812 26.974 100.375 27.3594C101.479 27.7448 102.677 27.9375 103.969 27.9375C105.26 27.9375 106.453 27.7448 107.547 27.3594C108.651 26.974 109.604 26.4271 110.406 25.7188C111.208 25 111.839 24.1354 112.297 23.125C112.755 22.1146 112.984 20.9792 112.984 19.7188C112.984 18.4583 112.755 17.3281 112.297 16.3281C111.839 15.3281 111.208 14.4844 110.406 13.7969C109.604 13.099 108.651 12.5677 107.547 12.2031C106.453 11.8385 105.26 11.6562 103.969 11.6562C102.677 11.6562 101.479 11.8385 100.375 12.2031C99.2812 12.5677 98.3281 13.099 97.5156 13.7969C96.7135 14.4844 96.0833 15.3281 95.625 16.3281C95.1771 17.3281 94.9531 18.4583 94.9531 19.7188Z" fill="white"/>
<defs>
<linearGradient id="paint0_linear_2_228" x1="152.969" y1="48.512" x2="152.969" y2="164.769" gradientUnits="userSpaceOnUse">
<stop stop-color="#D5224E"/>
<stop offset="1" stop-color="#FF003F"/>
</linearGradient>
</defs>
</svg>
